# xmcd
#
# Track frame offsets:
#	150
#	12332
#	27970
#	42785
#	58275
#	72637
#	89325
#	107897
#	121652
#	136922
#	151420
#	167190
#	184650
#	201320
#	214645
#	230867
#	244075
#	257407
#	270332
#	271085
#	271837
#	272590
#	292370
#
# Disc length: 4286 seconds
#
# Revision: 0
# Processed by: cddbd v1.5.1PL2 Copyright (c) Steve Scherf et al.
# Submitted via: audiograbber 1.83.01
#
DISCID=5810bc17
DTITLE=Various Artist - TMC 1121
DYEAR=1900
DGENRE=
TTITLE0=Pure Prairie League - Amie [Single Version]
TTITLE1=Dwight Yoakam - Turn It on, Turn It Up, Turn Me Loose
TTITLE2=Gary Morris - Headed For A Heartache
TTITLE3=Judds - Have Mercy
TTITLE4=T. Graham Brown - If You Could Only See Me Now
TTITLE5=Oak Ridge Boys - Fancy Free
TTITLE6=Alabama - My Home's In Alabama [Single]
TTITLE7=Randy Travis - Diggin' Up Bones
TTITLE8=Paul Overstreet - Love Helps Those
TTITLE9=Travis Tritt - Country Club
TTITLE10=Dan Seals - My Baby's Got Good Timing
TTITLE11=Steve Wariner - The Weekend
TTITLE12=Lynyrd Skynyrd - Sweet Home Alabama
TTITLE13=Hank Williams Jr. - I'm For Love
TTITLE14=Doug Stone - A Jukebox With A Country Song
TTITLE15=George Jones - Same Ole Me
TTITLE16=George Strait - Let's Fall To Pieces Together
TTITLE17=Clinton Gregory - (If It Weren't For Country Music) I'd Go Crazy
TTITLE18=Junk - track
TTITLE19=Junk - Track Adia
TTITLE20=More - Junk
TTITLE21=Pure Prairie League - Amie [Long Version]
TTITLE22=Alabama - My Home's In Alabama [Long Version]
EXTD=
EXTT0=
EXTT1=
EXTT2=
EXTT3=
EXTT4=
EXTT5=
EXTT6=
EXTT7=
EXTT8=
EXTT9=
EXTT10=
EXTT11=
EXTT12=
EXTT13=
EXTT14=
EXTT15=
EXTT16=
EXTT17=
EXTT18=
EXTT19=
EXTT20=
EXTT21=
EXTT22=
PLAYORDER=
